<?xml version="1.0" encoding="UTF-8"?>
<svg xmlns="http://www.w3.org/2000/svg" viewBox="0 0 800 880" font-family="Georgia, 'Times New Roman', serif">
  <style>
    .q-box { fill: #f8fafc; stroke: #1e293b; stroke-width: 1.5; }
    .q-text { fill: #0f172a; font-size: 13px; }
    .arrow { fill: none; stroke: #475569; stroke-width: 1.5; marker-end: url(#arrow); }
    .branch-yes { fill: #166534; font-size: 12px; font-weight: bold; }
    .branch-no { fill: #991b1b; font-size: 12px; font-weight: bold; }
    .leaf { fill: #1e3a8a; stroke: #1e3a8a; stroke-width: 1.5; }
    .leaf-text { fill: white; font-size: 14px; font-weight: bold; }
    .qnum { fill: #0369a1; font-size: 11px; font-weight: bold; letter-spacing: 1px; }
    .title { fill: #0f172a; font-size: 16px; font-weight: bold; }
    .caption { fill: #475569; font-size: 11px; font-style: italic; }
  </style>
  <defs>
    <marker id="arrow" viewBox="0 0 10 10" refX="9" refY="5" markerWidth="7" markerHeight="7" orient="auto">
      <path d="M 0 0 L 10 5 L 0 10 z" fill="#475569"/>
    </marker>
  </defs>

  <!-- Title -->
  <text x="360" y="30" text-anchor="middle" class="title">The Archetype Selection Tree</text>
  <text x="360" y="50" text-anchor="middle" class="caption">Apply questions in order; stop at the first match.</text>

  <!-- Q1 -->
  <rect x="120" y="80" width="480" height="64" rx="4" class="q-box"/>
  <text x="135" y="100" class="qnum">QUESTION 1</text>
  <text x="135" y="120" class="q-text">Does this system take any consequential action — writing data,</text>
  <text x="135" y="136" class="q-text">sending messages, calling APIs — without a human between its output and the consequence?</text>

  <!-- Q1 NO branch -->
  <line x1="120" y1="112" x2="60" y2="112" class="arrow"/>
  <line x1="60" y1="112" x2="60" y2="180" class="arrow"/>
  <text x="80" y="106" class="branch-no">NO</text>
  <rect x="20" y="180" width="80" height="40" rx="4" class="leaf"/>
  <text x="60" y="205" text-anchor="middle" class="leaf-text">ADVISOR</text>

  <!-- Q1 YES → Q2 -->
  <line x1="360" y1="144" x2="360" y2="190" class="arrow"/>
  <text x="370" y="170" class="branch-yes">YES</text>

  <!-- Q2 -->
  <rect x="120" y="190" width="480" height="64" rx="4" class="q-box"/>
  <text x="135" y="210" class="qnum">QUESTION 2</text>
  <text x="135" y="230" class="q-text">Is the system's PRIMARY purpose to protect a boundary, enforce a</text>
  <text x="135" y="246" class="q-text">constraint, or prevent a violation — rather than accomplish a positive goal?</text>

  <!-- Q2 YES branch -->
  <line x1="120" y1="222" x2="60" y2="222" class="arrow"/>
  <line x1="60" y1="222" x2="60" y2="290" class="arrow"/>
  <text x="80" y="216" class="branch-yes">YES</text>
  <rect x="20" y="290" width="80" height="40" rx="4" class="leaf"/>
  <text x="60" y="315" text-anchor="middle" class="leaf-text">GUARDIAN</text>

  <!-- Q2 NO → Q3 -->
  <line x1="360" y1="254" x2="360" y2="300" class="arrow"/>
  <text x="370" y="280" class="branch-no">NO</text>

  <!-- Q3 -->
  <rect x="120" y="300" width="480" height="64" rx="4" class="q-box"/>
  <text x="135" y="320" class="qnum">QUESTION 3</text>
  <text x="135" y="340" class="q-text">Does this system's work fundamentally involve directing, coordinating, or</text>
  <text x="135" y="356" class="q-text">allocating work across OTHER agents, tools, or services — rather than doing the work itself?</text>

  <!-- Q3 YES branch -->
  <line x1="600" y1="332" x2="670" y2="332" class="arrow"/>
  <line x1="670" y1="332" x2="670" y2="400" class="arrow"/>
  <text x="635" y="326" class="branch-yes">YES</text>
  <rect x="620" y="400" width="100" height="40" rx="4" class="leaf"/>
  <text x="670" y="421" text-anchor="middle" font-size="11" font-weight="bold" fill="white">ORCHESTRA-</text>
  <text x="670" y="434" text-anchor="middle" font-size="11" font-weight="bold" fill="white">TOR</text>

  <!-- Q3 NO → Q4 -->
  <line x1="360" y1="364" x2="360" y2="410" class="arrow"/>
  <text x="370" y="390" class="branch-no">NO</text>

  <!-- Q4 -->
  <rect x="120" y="410" width="480" height="64" rx="4" class="q-box"/>
  <text x="135" y="430" class="qnum">QUESTION 4</text>
  <text x="135" y="450" class="q-text">Is this system's primary output a synthesized artifact — combining or</text>
  <text x="135" y="466" class="q-text">distilling multiple inputs into a coherent whole that did not exist before?</text>

  <!-- Q4 YES branch -->
  <line x1="120" y1="442" x2="60" y2="442" class="arrow"/>
  <line x1="60" y1="442" x2="60" y2="510" class="arrow"/>
  <text x="80" y="436" class="branch-yes">YES</text>
  <rect x="20" y="510" width="100" height="40" rx="4" class="leaf"/>
  <text x="70" y="535" text-anchor="middle" class="leaf-text">SYNTHESIZER</text>

  <!-- Q4 NO → EXECUTOR (default) -->
  <line x1="360" y1="474" x2="360" y2="520" class="arrow"/>
  <text x="370" y="500" class="branch-no">NO</text>
  <rect x="320" y="520" width="80" height="40" rx="4" class="leaf"/>
  <text x="360" y="545" text-anchor="middle" class="leaf-text">EXECUTOR</text>

  <!-- Risk override note -->
  <rect x="60" y="610" width="600" height="100" rx="4" fill="#fef3c7" stroke="#f59e0b" stroke-width="1.5"/>
  <text x="80" y="635" font-size="12px" font-weight="bold" fill="#78350f">RISK OVERRIDE</text>
  <text x="80" y="657" font-size="12px" fill="#78350f">If the system's actions touch high-consequence domains (irreversible state, regulated data,</text>
  <text x="80" y="673" font-size="12px" fill="#78350f">safety-critical control), elevate to the next-most-restrictive archetype regardless of the</text>
  <text x="80" y="689" font-size="12px" fill="#78350f">tree's answer. The override path: ADVISOR &lt; GUARDIAN &lt; SYNTHESIZER &lt; EXECUTOR &lt; ORCHESTRATOR.</text>

  <!-- Caption -->
  <text x="360" y="755" text-anchor="middle" class="caption">Figure 1: Decision tree for selecting one of the five canonical archetypes.</text>
  <text x="360" y="772" text-anchor="middle" class="caption">Composition is permitted: a single deployment may host multiple archetypes (e.g., an</text>
  <text x="360" y="788" text-anchor="middle" class="caption">Orchestrator coordinating Executors, with a Guardian validating each Executor's output).</text>
</svg>
